<?xml version="1.0" encoding="UTF-8" ?>
<svg version="1.1" width="136" height="136" xmlns="http://www.w3.org/2000/svg" shape-rendering="crispEdges">
<rect x="48" y="0" width="40" height="4" fill="#1C1C1C" />
<rect x="40" y="4" width="12" height="4" fill="#1C1C1C" />
<rect x="52" y="4" width="32" height="4" fill="#F4F4F4" />
<rect x="84" y="4" width="12" height="4" fill="#1C1C1C" />
<rect x="36" y="8" width="8" height="4" fill="#1C1C1C" />
<rect x="44" y="8" width="8" height="4" fill="#F4F4F4" />
<rect x="52" y="8" width="32" height="4" fill="#1C1C1C" />
<rect x="84" y="8" width="8" height="4" fill="#F4F4F4" />
<rect x="92" y="8" width="8" height="4" fill="#1C1C1C" />
<rect x="28" y="12" width="12" height="4" fill="#1C1C1C" />
<rect x="40" y="12" width="4" height="4" fill="#F4F4F4" />
<rect x="44" y="12" width="16" height="4" fill="#1C1C1C" />
<rect x="60" y="12" width="4" height="4" fill="#F4F4F4" />
<rect x="64" y="12" width="28" height="8" fill="#1C1C1C" />
<rect x="92" y="12" width="4" height="4" fill="#F4F4F4" />
<rect x="96" y="12" width="12" height="4" fill="#1C1C1C" />
<rect x="24" y="16" width="8" height="4" fill="#1C1C1C" />
<rect x="32" y="16" width="8" height="4" fill="#F4F4F4" />
<rect x="40" y="16" width="16" height="4" fill="#1C1C1C" />
<rect x="56" y="16" width="4" height="4" fill="#F4F4F4" />
<rect x="60" y="16" width="4" height="20" fill="#1C1C1C" />
<rect x="92" y="16" width="4" height="8" fill="#1C1C1C" />
<rect x="96" y="16" width="8" height="4" fill="#F4F4F4" />
<rect x="104" y="16" width="8" height="4" fill="#1C1C1C" />
<rect x="20" y="20" width="8" height="4" fill="#1C1C1C" />
<rect x="28" y="20" width="4" height="4" fill="#F4F4F4" />
<rect x="32" y="20" width="16" height="4" fill="#1C1C1C" />
<rect x="48" y="20" width="4" height="4" fill="#F4F4F4" />
<rect x="52" y="20" width="8" height="20" fill="#1C1C1C" />
<rect x="64" y="20" width="4" height="16" fill="#1C1C1C" />
<rect x="68" y="20" width="12" height="4" fill="#F4F4F4" />
<rect x="80" y="20" width="8" height="4" fill="#1C1C1C" />
<rect x="88" y="20" width="4" height="4" fill="#F4F4F4" />
<rect x="96" y="20" width="8" height="24" fill="#1C1C1C" />
<rect x="104" y="20" width="4" height="4" fill="#F4F4F4" />
<rect x="108" y="20" width="8" height="4" fill="#1C1C1C" />
<rect x="16" y="24" width="8" height="4" fill="#1C1C1C" />
<rect x="24" y="24" width="4" height="4" fill="#F4F4F4" />
<rect x="28" y="24" width="16" height="4" fill="#1C1C1C" />
<rect x="44" y="24" width="4" height="4" fill="#F4F4F4" />
<rect x="48" y="24" width="4" height="20" fill="#1C1C1C" />
<rect x="68" y="24" width="12" height="12" fill="#1C1C1C" />
<rect x="80" y="24" width="4" height="4" fill="#F4F4F4" />
<rect x="84" y="24" width="8" height="8" fill="#1C1C1C" />
<rect x="92" y="24" width="4" height="4" fill="#F4F4F4" />
<rect x="104" y="24" width="4" height="12" fill="#1C1C1C" />
<rect x="108" y="24" width="4" height="4" fill="#F4F4F4" />
<rect x="112" y="24" width="8" height="4" fill="#1C1C1C" />
<rect x="12" y="28" width="8" height="4" fill="#1C1C1C" />
<rect x="20" y="28" width="4" height="4" fill="#F4F4F4" />
<rect x="24" y="28" width="16" height="4" fill="#1C1C1C" />
<rect x="40" y="28" width="4" height="4" fill="#F4F4F4" />
<rect x="44" y="28" width="4" height="28" fill="#1C1C1C" />
<rect x="80" y="28" width="4" height="16" fill="#1C1C1C" />
<rect x="92" y="28" width="4" height="12" fill="#1C1C1C" />
<rect x="108" y="28" width="4" height="12" fill="#1C1C1C" />
<rect x="112" y="28" width="4" height="4" fill="#F4F4F4" />
<rect x="116" y="28" width="8" height="4" fill="#1C1C1C" />
<rect x="8" y="32" width="8" height="4" fill="#1C1C1C" />
<rect x="16" y="32" width="4" height="4" fill="#F4F4F4" />
<rect x="20" y="32" width="16" height="8" fill="#1C1C1C" />
<rect x="36" y="32" width="4" height="4" fill="#F4F4F4" />
<rect x="40" y="32" width="4" height="12" fill="#1C1C1C" />
<rect x="84" y="32" width="4" height="4" fill="#F4F4F4" />
<rect x="88" y="32" width="4" height="4" fill="#1C1C1C" />
<rect x="112" y="32" width="4" height="16" fill="#1C1C1C" />
<rect x="116" y="32" width="4" height="4" fill="#F4F4F4" />
<rect x="120" y="32" width="8" height="4" fill="#1C1C1C" />
<rect x="8" y="36" width="4" height="12" fill="#1C1C1C" />
<rect x="12" y="36" width="4" height="12" fill="#FFFFFF" />
<rect x="16" y="36" width="4" height="16" fill="#1C1C1C" />
<rect x="36" y="36" width="4" height="12" fill="#1C1C1C" />
<rect x="60" y="36" width="12" height="36" fill="#F4F4F4" />
<rect x="72" y="36" width="8" height="4" fill="#1C1C1C" />
<rect x="84" y="36" width="4" height="20" fill="#1C1C1C" />
<rect x="88" y="36" width="4" height="4" fill="#F4F4F4" />
<rect x="104" y="36" width="4" height="4" fill="#F4F4F4" />
<rect x="116" y="36" width="4" height="24" fill="#1C1C1C" />
<rect x="120" y="36" width="4" height="12" fill="#F4F4F4" />
<rect x="124" y="36" width="4" height="12" fill="#1C1C1C" />
<rect x="20" y="40" width="4" height="4" fill="#1C1C1C" />
<rect x="24" y="40" width="8" height="4" fill="#F4F4F4" />
<rect x="32" y="40" width="4" height="12" fill="#1C1C1C" />
<rect x="52" y="40" width="8" height="20" fill="#F4F4F4" />
<rect x="72" y="40" width="8" height="20" fill="#F4F4F4" />
<rect x="88" y="40" width="4" height="16" fill="#1C1C1C" />
<rect x="92" y="40" width="4" height="4" fill="#F4F4F4" />
<rect x="104" y="40" width="4" height="32" fill="#1C1C1C" />
<rect x="108" y="40" width="4" height="8" fill="#F4F4F4" />
<rect x="4" y="44" width="4" height="8" fill="#1C1C1C" />
<rect x="20" y="44" width="4" height="8" fill="#F4F4F4" />
<rect x="24" y="44" width="8" height="12" fill="#1C1C1C" />
<rect x="40" y="44" width="4" height="4" fill="#F4F4F4" />
<rect x="48" y="44" width="4" height="16" fill="#F4F4F4" />
<rect x="80" y="44" width="4" height="16" fill="#F4F4F4" />
<rect x="92" y="44" width="4" height="16" fill="#1C1C1C" />
<rect x="96" y="44" width="4" height="4" fill="#F4F4F4" />
<rect x="100" y="44" width="4" height="4" fill="#1C1C1C" />
<rect x="128" y="44" width="4" height="8" fill="#1C1C1C" />
<rect x="0" y="48" width="4" height="24" fill="#1C1C1C" />
<rect x="8" y="48" width="4" height="4" fill="#FFFFFF" />
<rect x="12" y="48" width="4" height="28" fill="#1C1C1C" />
<rect x="36" y="48" width="4" height="4" fill="#F4F4F4" />
<rect x="40" y="48" width="4" height="12" fill="#1C1C1C" />
<rect x="96" y="48" width="4" height="16" fill="#1C1C1C" />
<rect x="100" y="48" width="4" height="4" fill="#F4F4F4" />
<rect x="108" y="48" width="4" height="40" fill="#1C1C1C" />
<rect x="112" y="48" width="4" height="12" fill="#F4F4F4" />
<rect x="120" y="48" width="4" height="28" fill="#1C1C1C" />
<rect x="124" y="48" width="4" height="4" fill="#F4F4F4" />
<rect x="132" y="48" width="4" height="24" fill="#1C1C1C" />
<rect x="4" y="52" width="4" height="8" fill="#FFFFFF" />
<rect x="8" y="52" width="4" height="8" fill="#1C1C1C" />
<rect x="16" y="52" width="4" height="4" fill="#F4F4F4" />
<rect x="20" y="52" width="4" height="24" fill="#1C1C1C" />
<rect x="32" y="52" width="4" height="4" fill="#F4F4F4" />
<rect x="36" y="52" width="4" height="12" fill="#1C1C1C" />
<rect x="100" y="52" width="4" height="16" fill="#1C1C1C" />
<rect x="124" y="52" width="4" height="8" fill="#1C1C1C" />
<rect x="128" y="52" width="4" height="8" fill="#F4F4F4" />
<rect x="16" y="56" width="4" height="36" fill="#1C1C1C" />
<rect x="24" y="56" width="4" height="32" fill="#1C1C1C" />
<rect x="28" y="56" width="4" height="8" fill="#F4F4F4" />
<rect x="32" y="56" width="4" height="12" fill="#1C1C1C" />
<rect x="44" y="56" width="4" height="8" fill="#F4F4F4" />
<rect x="84" y="56" width="8" height="4" fill="#F4F4F4" />
<rect x="4" y="60" width="4" height="4" fill="#1C1C1C" />
<rect x="8" y="60" width="4" height="4" fill="#FFFFFF" />
<rect x="40" y="60" width="4" height="8" fill="#F4F4F4" />
<rect x="48" y="60" width="3" height="1" fill="#F4F4F4" />
<rect x="51" y="60" width="5" height="4" fill="#1C1C1C" />
<rect x="56" y="60" width="4" height="1" fill="#F4F4F4" />
<rect x="72" y="60" width="7" height="28" fill="#F4F4F4" />
<rect x="79" y="60" width="9" height="3" fill="#1C1C1C" />
<rect x="88" y="60" width="8" height="1" fill="#F4F4F4" />
<rect x="112" y="60" width="4" height="16" fill="#1C1C1C" />
<rect x="116" y="60" width="4" height="4" fill="#F4F4F4" />
<rect x="124" y="60" width="4" height="4" fill="#F4F4F4" />
<rect x="128" y="60" width="4" height="4" fill="#1C1C1C" />
<rect x="48" y="61" width="2" height="1" fill="#F4F4F4" />
<rect x="50" y="61" width="1" height="6" fill="#1C1C1C" />
<rect x="56" y="61" width="1" height="19" fill="#1C1C1C" />
<rect x="57" y="61" width="3" height="10" fill="#F4F4F4" />
<rect x="88" y="61" width="2" height="17" fill="#1C1C1C" />
<rect x="90" y="61" width="6" height="2" fill="#F4F4F4" />
<rect x="48" y="62" width="1" height="1" fill="#F4F4F4" />
<rect x="49" y="62" width="1" height="6" fill="#1C1C1C" />
<rect x="48" y="63" width="1" height="6" fill="#1C1C1C" />
<rect x="79" y="63" width="8" height="1" fill="#E0E0E0" />
<rect x="87" y="63" width="1" height="1" fill="#1C1C1C" />
<rect x="90" y="63" width="2" height="4" fill="#1C1C1C" />
<rect x="92" y="63" width="4" height="53" fill="#F4F4F4" />
<rect x="4" y="64" width="4" height="4" fill="#FFFFFF" />
<rect x="8" y="64" width="4" height="4" fill="#1C1C1C" />
<rect x="28" y="64" width="4" height="8" fill="#1C1C1C" />
<rect x="36" y="64" width="4" height="48" fill="#F4F4F4" />
<rect x="44" y="64" width="3" height="1" fill="#F4F4F4" />
<rect x="47" y="64" width="1" height="11" fill="#1C1C1C" />
<rect x="51" y="64" width="2" height="1" fill="#1C1C1C" />
<rect x="53" y="64" width="1" height="1" fill="#E0E0E0" />
<rect x="54" y="64" width="2" height="16" fill="#1C1C1C" />
<rect x="79" y="64" width="8" height="3" fill="#F4F4F4" />
<rect x="87" y="64" width="1" height="1" fill="#E0E0E0" />
<rect x="96" y="64" width="4" height="48" fill="#F4F4F4" />
<rect x="116" y="64" width="4" height="28" fill="#1C1C1C" />
<rect x="124" y="64" width="4" height="4" fill="#1C1C1C" />
<rect x="128" y="64" width="4" height="4" fill="#F4F4F4" />
<rect x="44" y="65" width="2" height="1" fill="#F4F4F4" />
<rect x="46" y="65" width="1" height="10" fill="#1C1C1C" />
<rect x="51" y="65" width="1" height="1" fill="#1C1C1C" />
<rect x="52" y="65" width="1" height="1" fill="#E0E0E0" />
<rect x="53" y="65" width="1" height="6" fill="#F4F4F4" />
<rect x="87" y="65" width="1" height="1" fill="#F4F4F4" />
<rect x="44" y="66" width="1" height="1" fill="#F4F4F4" />
<rect x="45" y="66" width="1" height="9" fill="#1C1C1C" />
<rect x="51" y="66" width="1" height="1" fill="#E0E0E0" />
<rect x="52" y="66" width="1" height="5" fill="#F4F4F4" />
<rect x="87" y="66" width="1" height="6" fill="#1C1C1C" />
<rect x="44" y="67" width="1" height="8" fill="#1C1C1C" />
<rect x="50" y="67" width="1" height="1" fill="#E0E0E0" />
<rect x="51" y="67" width="1" height="4" fill="#F4F4F4" />
<rect x="79" y="67" width="1" height="10" fill="#F4F4F4" />
<rect x="80" y="67" width="7" height="3" fill="#1C1C1C" />
<rect x="90" y="67" width="1" height="1" fill="#1C1C1C" />
<rect x="91" y="67" width="1" height="1" fill="#E0E0E0" />
<rect x="4" y="68" width="4" height="12" fill="#1C1C1C" />
<rect x="8" y="68" width="4" height="8" fill="#F4F4F4" />
<rect x="32" y="68" width="4" height="36" fill="#F4F4F4" />
<rect x="40" y="68" width="3" height="1" fill="#F4F4F4" />
<rect x="43" y="68" width="1" height="6" fill="#1C1C1C" />
<rect x="49" y="68" width="1" height="1" fill="#E0E0E0" />
<rect x="50" y="68" width="1" height="3" fill="#F4F4F4" />
<rect x="90" y="68" width="1" height="1" fill="#E0E0E0" />
<rect x="91" y="68" width="1" height="2" fill="#F4F4F4" />
<rect x="100" y="68" width="4" height="36" fill="#F4F4F4" />
<rect x="124" y="68" width="4" height="8" fill="#F4F4F4" />
<rect x="128" y="68" width="4" height="12" fill="#1C1C1C" />
<rect x="40" y="69" width="2" height="47" fill="#F4F4F4" />
<rect x="42" y="69" width="1" height="4" fill="#1C1C1C" />
<rect x="48" y="69" width="1" height="2" fill="#E0E0E0" />
<rect x="49" y="69" width="1" height="2" fill="#F4F4F4" />
<rect x="90" y="69" width="1" height="9" fill="#1C1C1C" />
<rect x="80" y="70" width="6" height="1" fill="#E0E0E0" />
<rect x="86" y="70" width="1" height="1" fill="#1C1C1C" />
<rect x="91" y="70" width="1" height="7" fill="#1C1C1C" />
<rect x="48" y="71" width="6" height="4" fill="#1C1C1C" />
<rect x="57" y="71" width="3" height="4" fill="#1C1C1C" />
<rect x="80" y="71" width="6" height="6" fill="#F4F4F4" />
<rect x="86" y="71" width="1" height="1" fill="#E0E0E0" />
<rect x="28" y="72" width="4" height="20" fill="#F4F4F4" />
<rect x="60" y="72" width="6" height="12" fill="#F4F4F4" />
<rect x="66" y="72" width="4" height="12" fill="#1C1C1C" />
<rect x="70" y="72" width="2" height="16" fill="#E0E0E0" />
<rect x="86" y="72" width="1" height="4" fill="#F4F4F4" />
<rect x="87" y="72" width="1" height="1" fill="#E0E0E0" />
<rect x="104" y="72" width="4" height="20" fill="#F4F4F4" />
<rect x="42" y="73" width="1" height="1" fill="#E0E0E0" />
<rect x="87" y="73" width="1" height="2" fill="#F4F4F4" />
<rect x="42" y="74" width="1" height="42" fill="#F4F4F4" />
<rect x="43" y="74" width="1" height="1" fill="#E0E0E0" />
<rect x="43" y="75" width="1" height="41" fill="#F4F4F4" />
<rect x="44" y="75" width="10" height="1" fill="#E0E0E0" />
<rect x="57" y="75" width="3" height="1" fill="#E0E0E0" />
<rect x="87" y="75" width="1" height="5" fill="#1C1C1C" />
<rect x="8" y="76" width="4" height="8" fill="#1C1C1C" />
<rect x="12" y="76" width="4" height="4" fill="#F4F4F4" />
<rect x="20" y="76" width="4" height="12" fill="#F4F4F4" />
<rect x="44" y="76" width="10" height="40" fill="#F4F4F4" />
<rect x="57" y="76" width="3" height="12" fill="#F4F4F4" />
<rect x="86" y="76" width="1" height="4" fill="#1C1C1C" />
<rect x="112" y="76" width="4" height="12" fill="#F4F4F4" />
<rect x="120" y="76" width="4" height="4" fill="#F4F4F4" />
<rect x="124" y="76" width="4" height="8" fill="#1C1C1C" />
<rect x="79" y="77" width="7" height="3" fill="#1C1C1C" />
<rect x="91" y="77" width="1" height="1" fill="#E0E0E0" />
<rect x="88" y="78" width="1" height="1" fill="#1C1C1C" />
<rect x="89" y="78" width="2" height="1" fill="#E0E0E0" />
<rect x="91" y="78" width="1" height="38" fill="#F4F4F4" />
<rect x="88" y="79" width="1" height="1" fill="#E0E0E0" />
<rect x="89" y="79" width="2" height="37" fill="#F4F4F4" />
<rect x="12" y="80" width="4" height="8" fill="#1C1C1C" />
<rect x="54" y="80" width="3" height="1" fill="#E0E0E0" />
<rect x="79" y="80" width="9" height="1" fill="#E0E0E0" />
<rect x="88" y="80" width="1" height="36" fill="#F4F4F4" />
<rect x="120" y="80" width="4" height="4" fill="#1C1C1C" />
<rect x="54" y="81" width="3" height="43" fill="#F4F4F4" />
<rect x="79" y="81" width="9" height="39" fill="#F4F4F4" />
<rect x="60" y="84" width="2" height="4" fill="#F4F4F4" />
<rect x="62" y="84" width="4" height="4" fill="#1C1C1C" />
<rect x="66" y="84" width="4" height="8" fill="#E0E0E0" />
<rect x="20" y="88" width="4" height="12" fill="#1C1C1C" />
<rect x="24" y="88" width="4" height="8" fill="#F4F4F4" />
<rect x="57" y="88" width="1" height="40" fill="#F4F4F4" />
<rect x="58" y="88" width="4" height="4" fill="#1C1C1C" />
<rect x="62" y="88" width="4" height="4" fill="#E0E0E0" />
<rect x="70" y="88" width="4" height="4" fill="#1C1C1C" />
<rect x="76" y="88" width="3" height="40" fill="#F4F4F4" />
<rect x="108" y="88" width="4" height="8" fill="#F4F4F4" />
<rect x="112" y="88" width="4" height="12" fill="#1C1C1C" />
<rect x="28" y="92" width="4" height="20" fill="#1C1C1C" />
<rect x="58" y="92" width="4" height="11" fill="#F4F4F4" />
<rect x="62" y="92" width="8" height="4" fill="#1C1C1C" />
<rect x="72" y="92" width="4" height="10" fill="#F4F4F4" />
<rect x="104" y="92" width="4" height="16" fill="#1C1C1C" />
<rect x="24" y="96" width="4" height="4" fill="#1C1C1C" />
<rect x="62" y="96" width="10" height="5" fill="#F4F4F4" />
<rect x="108" y="96" width="4" height="4" fill="#1C1C1C" />
<rect x="62" y="101" width="3" height="1" fill="#F4F4F4" />
<rect x="65" y="101" width="6" height="4" fill="#1C1C1C" />
<rect x="71" y="101" width="1" height="1" fill="#F4F4F4" />
<rect x="62" y="102" width="1" height="1" fill="#F8F5F0" />
<rect x="63" y="102" width="2" height="5" fill="#1C1C1C" />
<rect x="71" y="102" width="2" height="5" fill="#1C1C1C" />
<rect x="73" y="102" width="1" height="1" fill="#F8F5F0" />
<rect x="74" y="102" width="2" height="2" fill="#F4F4F4" />
<rect x="58" y="103" width="2" height="25" fill="#F4F4F4" />
<rect x="60" y="103" width="1" height="2" fill="#F8F5F0" />
<rect x="61" y="103" width="1" height="1" fill="#F4F4F4" />
<rect x="62" y="103" width="1" height="20" fill="#1C1C1C" />
<rect x="73" y="103" width="1" height="20" fill="#1C1C1C" />
<rect x="32" y="104" width="4" height="12" fill="#1C1C1C" />
<rect x="61" y="104" width="1" height="18" fill="#1C1C1C" />
<rect x="74" y="104" width="1" height="18" fill="#1C1C1C" />
<rect x="75" y="104" width="1" height="1" fill="#F8F5F0" />
<rect x="100" y="104" width="4" height="12" fill="#1C1C1C" />
<rect x="60" y="105" width="1" height="15" fill="#1C1C1C" />
<rect x="65" y="105" width="1" height="1" fill="#1C1C1C" />
<rect x="66" y="105" width="4" height="1" fill="#E0E0E0" />
<rect x="70" y="105" width="1" height="1" fill="#1C1C1C" />
<rect x="75" y="105" width="1" height="15" fill="#1C1C1C" />
<rect x="65" y="106" width="1" height="1" fill="#E0E0E0" />
<rect x="66" y="106" width="4" height="14" fill="#F4F4F4" />
<rect x="70" y="106" width="1" height="1" fill="#E0E0E0" />
<rect x="63" y="107" width="1" height="17" fill="#1C1C1C" />
<rect x="64" y="107" width="1" height="12" fill="#E0E0E0" />
<rect x="65" y="107" width="1" height="12" fill="#F4F4F4" />
<rect x="70" y="107" width="1" height="12" fill="#F4F4F4" />
<rect x="71" y="107" width="1" height="12" fill="#E0E0E0" />
<rect x="72" y="107" width="1" height="17" fill="#1C1C1C" />
<rect x="36" y="112" width="4" height="8" fill="#1C1C1C" />
<rect x="96" y="112" width="4" height="8" fill="#1C1C1C" />
<rect x="40" y="116" width="4" height="8" fill="#1C1C1C" />
<rect x="44" y="116" width="4" height="4" fill="#E0E0E0" />
<rect x="48" y="116" width="6" height="4" fill="#F4F4F4" />
<rect x="88" y="116" width="4" height="4" fill="#E0E0E0" />
<rect x="92" y="116" width="4" height="8" fill="#1C1C1C" />
<rect x="64" y="119" width="1" height="5" fill="#1C1C1C" />
<rect x="65" y="119" width="1" height="1" fill="#F8F5F0" />
<rect x="70" y="119" width="1" height="1" fill="#F8F5F0" />
<rect x="71" y="119" width="1" height="5" fill="#1C1C1C" />
<rect x="44" y="120" width="4" height="8" fill="#1C1C1C" />
<rect x="48" y="120" width="4" height="4" fill="#E0E0E0" />
<rect x="52" y="120" width="2" height="4" fill="#F4F4F4" />
<rect x="60" y="120" width="1" height="2" fill="#E0E0E0" />
<rect x="65" y="120" width="1" height="4" fill="#1C1C1C" />
<rect x="66" y="120" width="4" height="1" fill="#F8F5F0" />
<rect x="70" y="120" width="1" height="4" fill="#1C1C1C" />
<rect x="75" y="120" width="1" height="2" fill="#E0E0E0" />
<rect x="79" y="120" width="5" height="4" fill="#F4F4F4" />
<rect x="84" y="120" width="4" height="4" fill="#E0E0E0" />
<rect x="88" y="120" width="4" height="8" fill="#1C1C1C" />
<rect x="66" y="121" width="4" height="4" fill="#1C1C1C" />
<rect x="60" y="122" width="1" height="6" fill="#F4F4F4" />
<rect x="61" y="122" width="1" height="1" fill="#E0E0E0" />
<rect x="74" y="122" width="1" height="1" fill="#E0E0E0" />
<rect x="75" y="122" width="1" height="6" fill="#F4F4F4" />
<rect x="61" y="123" width="1" height="5" fill="#F4F4F4" />
<rect x="62" y="123" width="1" height="1" fill="#E0E0E0" />
<rect x="73" y="123" width="1" height="1" fill="#E0E0E0" />
<rect x="74" y="123" width="1" height="5" fill="#F4F4F4" />
<rect x="48" y="124" width="4" height="8" fill="#1C1C1C" />
<rect x="52" y="124" width="4" height="4" fill="#E0E0E0" />
<rect x="56" y="124" width="1" height="4" fill="#F4F4F4" />
<rect x="62" y="124" width="1" height="4" fill="#F4F4F4" />
<rect x="63" y="124" width="3" height="1" fill="#E0E0E0" />
<rect x="70" y="124" width="3" height="1" fill="#E0E0E0" />
<rect x="73" y="124" width="1" height="4" fill="#F4F4F4" />
<rect x="79" y="124" width="1" height="4" fill="#F4F4F4" />
<rect x="80" y="124" width="4" height="4" fill="#E0E0E0" />
<rect x="84" y="124" width="4" height="8" fill="#1C1C1C" />
<rect x="63" y="125" width="3" height="3" fill="#F4F4F4" />
<rect x="66" y="125" width="4" height="1" fill="#E0E0E0" />
<rect x="70" y="125" width="3" height="3" fill="#F4F4F4" />
<rect x="66" y="126" width="4" height="2" fill="#F4F4F4" />
<rect x="52" y="128" width="4" height="8" fill="#1C1C1C" />
<rect x="56" y="128" width="24" height="4" fill="#E0E0E0" />
<rect x="80" y="128" width="4" height="8" fill="#1C1C1C" />
<rect x="56" y="132" width="24" height="4" fill="#1C1C1C" />
</svg>