<?xml version="1.0" encoding="UTF-8" ?>
<svg version="1.1" width="128" height="128" xmlns="http://www.w3.org/2000/svg" shape-rendering="crispEdges">
<rect x="45" y="0" width="38" height="4" fill="#1C1C1C" />
<rect x="38" y="4" width="11" height="4" fill="#1C1C1C" />
<rect x="49" y="4" width="30" height="4" fill="#F4F4F4" />
<rect x="79" y="4" width="11" height="4" fill="#1C1C1C" />
<rect x="34" y="8" width="7" height="3" fill="#1C1C1C" />
<rect x="41" y="8" width="8" height="3" fill="#F4F4F4" />
<rect x="49" y="8" width="30" height="3" fill="#1C1C1C" />
<rect x="79" y="8" width="8" height="3" fill="#F4F4F4" />
<rect x="87" y="8" width="7" height="3" fill="#1C1C1C" />
<rect x="26" y="11" width="12" height="4" fill="#1C1C1C" />
<rect x="38" y="11" width="3" height="4" fill="#F4F4F4" />
<rect x="41" y="11" width="15" height="4" fill="#1C1C1C" />
<rect x="56" y="11" width="4" height="4" fill="#F4F4F4" />
<rect x="60" y="11" width="27" height="8" fill="#1C1C1C" />
<rect x="87" y="11" width="3" height="4" fill="#F4F4F4" />
<rect x="90" y="11" width="12" height="4" fill="#1C1C1C" />
<rect x="23" y="15" width="7" height="4" fill="#1C1C1C" />
<rect x="30" y="15" width="8" height="4" fill="#F4F4F4" />
<rect x="38" y="15" width="15" height="4" fill="#1C1C1C" />
<rect x="53" y="15" width="3" height="4" fill="#F4F4F4" />
<rect x="56" y="15" width="4" height="19" fill="#1C1C1C" />
<rect x="87" y="15" width="3" height="8" fill="#1C1C1C" />
<rect x="90" y="15" width="8" height="4" fill="#F4F4F4" />
<rect x="98" y="15" width="7" height="4" fill="#1C1C1C" />
<rect x="19" y="19" width="7" height="4" fill="#1C1C1C" />
<rect x="26" y="19" width="4" height="4" fill="#F4F4F4" />
<rect x="30" y="19" width="15" height="4" fill="#1C1C1C" />
<rect x="45" y="19" width="4" height="4" fill="#F4F4F4" />
<rect x="49" y="19" width="7" height="19" fill="#1C1C1C" />
<rect x="60" y="19" width="4" height="15" fill="#1C1C1C" />
<rect x="64" y="19" width="11" height="4" fill="#F4F4F4" />
<rect x="75" y="19" width="8" height="4" fill="#1C1C1C" />
<rect x="83" y="19" width="4" height="4" fill="#F4F4F4" />
<rect x="90" y="19" width="8" height="22" fill="#1C1C1C" />
<rect x="98" y="19" width="4" height="4" fill="#F4F4F4" />
<rect x="102" y="19" width="7" height="4" fill="#1C1C1C" />
<rect x="15" y="23" width="8" height="3" fill="#1C1C1C" />
<rect x="23" y="23" width="3" height="3" fill="#F4F4F4" />
<rect x="26" y="23" width="15" height="3" fill="#1C1C1C" />
<rect x="41" y="23" width="4" height="3" fill="#F4F4F4" />
<rect x="45" y="23" width="4" height="18" fill="#1C1C1C" />
<rect x="64" y="23" width="11" height="11" fill="#1C1C1C" />
<rect x="75" y="23" width="4" height="3" fill="#F4F4F4" />
<rect x="79" y="23" width="8" height="7" fill="#1C1C1C" />
<rect x="87" y="23" width="3" height="3" fill="#F4F4F4" />
<rect x="98" y="23" width="4" height="11" fill="#1C1C1C" />
<rect x="102" y="23" width="3" height="3" fill="#F4F4F4" />
<rect x="105" y="23" width="8" height="3" fill="#1C1C1C" />
<rect x="11" y="26" width="8" height="4" fill="#1C1C1C" />
<rect x="19" y="26" width="4" height="4" fill="#F4F4F4" />
<rect x="23" y="26" width="15" height="4" fill="#1C1C1C" />
<rect x="38" y="26" width="3" height="4" fill="#F4F4F4" />
<rect x="41" y="26" width="4" height="27" fill="#1C1C1C" />
<rect x="75" y="26" width="4" height="15" fill="#1C1C1C" />
<rect x="87" y="26" width="3" height="12" fill="#1C1C1C" />
<rect x="102" y="26" width="3" height="12" fill="#1C1C1C" />
<rect x="105" y="26" width="4" height="4" fill="#F4F4F4" />
<rect x="109" y="26" width="8" height="4" fill="#1C1C1C" />
<rect x="8" y="30" width="7" height="4" fill="#1C1C1C" />
<rect x="15" y="30" width="4" height="4" fill="#F4F4F4" />
<rect x="19" y="30" width="15" height="8" fill="#1C1C1C" />
<rect x="34" y="30" width="4" height="4" fill="#F4F4F4" />
<rect x="38" y="30" width="3" height="11" fill="#1C1C1C" />
<rect x="79" y="30" width="4" height="4" fill="#F4F4F4" />
<rect x="83" y="30" width="4" height="4" fill="#1C1C1C" />
<rect x="105" y="30" width="4" height="15" fill="#1C1C1C" />
<rect x="109" y="30" width="4" height="4" fill="#F4F4F4" />
<rect x="113" y="30" width="7" height="4" fill="#1C1C1C" />
<rect x="8" y="34" width="3" height="11" fill="#1C1C1C" />
<rect x="11" y="34" width="4" height="11" fill="#F4F4F4" />
<rect x="15" y="34" width="4" height="15" fill="#1C1C1C" />
<rect x="34" y="34" width="4" height="11" fill="#1C1C1C" />
<rect x="56" y="34" width="12" height="34" fill="#F4F4F4" />
<rect x="68" y="34" width="7" height="4" fill="#1C1C1C" />
<rect x="79" y="34" width="4" height="19" fill="#1C1C1C" />
<rect x="83" y="34" width="4" height="4" fill="#F4F4F4" />
<rect x="98" y="34" width="4" height="4" fill="#F4F4F4" />
<rect x="109" y="34" width="4" height="22" fill="#1C1C1C" />
<rect x="113" y="34" width="4" height="11" fill="#F4F4F4" />
<rect x="117" y="34" width="3" height="11" fill="#1C1C1C" />
<rect x="19" y="38" width="4" height="3" fill="#1C1C1C" />
<rect x="23" y="38" width="7" height="3" fill="#F4F4F4" />
<rect x="30" y="38" width="4" height="11" fill="#1C1C1C" />
<rect x="49" y="38" width="7" height="18" fill="#F4F4F4" />
<rect x="68" y="38" width="7" height="24" fill="#F4F4F4" />
<rect x="83" y="38" width="4" height="15" fill="#1C1C1C" />
<rect x="87" y="38" width="3" height="3" fill="#F4F4F4" />
<rect x="98" y="38" width="4" height="30" fill="#1C1C1C" />
<rect x="102" y="38" width="3" height="7" fill="#F4F4F4" />
<rect x="4" y="41" width="4" height="8" fill="#1C1C1C" />
<rect x="19" y="41" width="4" height="8" fill="#F4F4F4" />
<rect x="23" y="41" width="7" height="12" fill="#1C1C1C" />
<rect x="38" y="41" width="3" height="4" fill="#F4F4F4" />
<rect x="45" y="41" width="4" height="15" fill="#F4F4F4" />
<rect x="75" y="41" width="4" height="16" fill="#F4F4F4" />
<rect x="87" y="41" width="3" height="15" fill="#1C1C1C" />
<rect x="90" y="41" width="4" height="4" fill="#F4F4F4" />
<rect x="94" y="41" width="4" height="4" fill="#1C1C1C" />
<rect x="120" y="41" width="4" height="8" fill="#1C1C1C" />
<rect x="0" y="45" width="4" height="23" fill="#1C1C1C" />
<rect x="8" y="45" width="3" height="4" fill="#F4F4F4" />
<rect x="11" y="45" width="4" height="27" fill="#1C1C1C" />
<rect x="34" y="45" width="4" height="4" fill="#F4F4F4" />
<rect x="38" y="45" width="3" height="11" fill="#1C1C1C" />
<rect x="90" y="45" width="4" height="15" fill="#1C1C1C" />
<rect x="94" y="45" width="4" height="4" fill="#F4F4F4" />
<rect x="102" y="45" width="3" height="38" fill="#1C1C1C" />
<rect x="105" y="45" width="4" height="11" fill="#F4F4F4" />
<rect x="113" y="45" width="4" height="27" fill="#1C1C1C" />
<rect x="117" y="45" width="3" height="4" fill="#F4F4F4" />
<rect x="124" y="45" width="4" height="23" fill="#1C1C1C" />
<rect x="4" y="49" width="4" height="7" fill="#F4F4F4" />
<rect x="8" y="49" width="3" height="7" fill="#1C1C1C" />
<rect x="15" y="49" width="4" height="4" fill="#F4F4F4" />
<rect x="19" y="49" width="4" height="23" fill="#1C1C1C" />
<rect x="30" y="49" width="4" height="4" fill="#F4F4F4" />
<rect x="34" y="49" width="4" height="11" fill="#1C1C1C" />
<rect x="94" y="49" width="4" height="15" fill="#1C1C1C" />
<rect x="117" y="49" width="3" height="7" fill="#1C1C1C" />
<rect x="120" y="49" width="4" height="7" fill="#F4F4F4" />
<rect x="15" y="53" width="4" height="34" fill="#1C1C1C" />
<rect x="23" y="53" width="3" height="30" fill="#1C1C1C" />
<rect x="26" y="53" width="4" height="7" fill="#F4F4F4" />
<rect x="30" y="53" width="4" height="11" fill="#1C1C1C" />
<rect x="41" y="53" width="4" height="3" fill="#F4F4F4" />
<rect x="79" y="53" width="8" height="4" fill="#F4F4F4" />
<rect x="4" y="56" width="4" height="4" fill="#1C1C1C" />
<rect x="8" y="56" width="3" height="4" fill="#F4F4F4" />
<rect x="38" y="56" width="4" height="3" fill="#F4F4F4" />
<rect x="42" y="56" width="12" height="3" fill="#1C1C1C" />
<rect x="54" y="56" width="2" height="6" fill="#F4F4F4" />
<rect x="87" y="56" width="3" height="4" fill="#F4F4F4" />
<rect x="105" y="56" width="4" height="16" fill="#1C1C1C" />
<rect x="109" y="56" width="4" height="4" fill="#F4F4F4" />
<rect x="117" y="56" width="3" height="4" fill="#F4F4F4" />
<rect x="120" y="56" width="4" height="4" fill="#1C1C1C" />
<rect x="75" y="57" width="12" height="3" fill="#1C1C1C" />
<rect x="38" y="59" width="1" height="50" fill="#F4F4F4" />
<rect x="39" y="59" width="3" height="3" fill="#1C1C1C" />
<rect x="42" y="59" width="12" height="3" fill="#F4F4F4" />
<rect x="4" y="60" width="4" height="4" fill="#F4F4F4" />
<rect x="8" y="60" width="3" height="4" fill="#1C1C1C" />
<rect x="26" y="60" width="4" height="8" fill="#1C1C1C" />
<rect x="34" y="60" width="4" height="45" fill="#F4F4F4" />
<rect x="75" y="60" width="12" height="2" fill="#F4F4F4" />
<rect x="87" y="60" width="3" height="3" fill="#1C1C1C" />
<rect x="90" y="60" width="4" height="45" fill="#F4F4F4" />
<rect x="109" y="60" width="4" height="27" fill="#1C1C1C" />
<rect x="117" y="60" width="3" height="4" fill="#1C1C1C" />
<rect x="120" y="60" width="4" height="4" fill="#F4F4F4" />
<rect x="39" y="62" width="7" height="47" fill="#F4F4F4" />
<rect x="46" y="62" width="3" height="3" fill="#1C1C1C" />
<rect x="49" y="62" width="3" height="3" fill="#F4F4F4" />
<rect x="52" y="62" width="3" height="3" fill="#1C1C1C" />
<rect x="55" y="62" width="1" height="58" fill="#F4F4F4" />
<rect x="68" y="62" width="6" height="21" fill="#F4F4F4" />
<rect x="74" y="62" width="3" height="3" fill="#1C1C1C" />
<rect x="77" y="62" width="3" height="3" fill="#F4F4F4" />
<rect x="80" y="62" width="3" height="3" fill="#1C1C1C" />
<rect x="83" y="62" width="4" height="47" fill="#F4F4F4" />
<rect x="87" y="63" width="3" height="46" fill="#F4F4F4" />
<rect x="4" y="64" width="4" height="11" fill="#1C1C1C" />
<rect x="8" y="64" width="3" height="8" fill="#F4F4F4" />
<rect x="30" y="64" width="4" height="34" fill="#F4F4F4" />
<rect x="94" y="64" width="4" height="34" fill="#F4F4F4" />
<rect x="117" y="64" width="3" height="8" fill="#F4F4F4" />
<rect x="120" y="64" width="4" height="11" fill="#1C1C1C" />
<rect x="46" y="65" width="3" height="3" fill="#F4F4F4" />
<rect x="49" y="65" width="3" height="3" fill="#1C1C1C" />
<rect x="52" y="65" width="3" height="3" fill="#F4F4F4" />
<rect x="74" y="65" width="3" height="3" fill="#F4F4F4" />
<rect x="77" y="65" width="3" height="3" fill="#1C1C1C" />
<rect x="80" y="65" width="3" height="3" fill="#F4F4F4" />
<rect x="26" y="68" width="4" height="19" fill="#F4F4F4" />
<rect x="46" y="68" width="3" height="3" fill="#1C1C1C" />
<rect x="49" y="68" width="3" height="49" fill="#F4F4F4" />
<rect x="52" y="68" width="3" height="3" fill="#1C1C1C" />
<rect x="56" y="68" width="8" height="11" fill="#F4F4F4" />
<rect x="64" y="68" width="4" height="11" fill="#1C1C1C" />
<rect x="74" y="68" width="3" height="3" fill="#1C1C1C" />
<rect x="77" y="68" width="3" height="45" fill="#F4F4F4" />
<rect x="80" y="68" width="3" height="3" fill="#1C1C1C" />
<rect x="98" y="68" width="4" height="19" fill="#F4F4F4" />
<rect x="46" y="71" width="3" height="42" fill="#F4F4F4" />
<rect x="52" y="71" width="3" height="46" fill="#F4F4F4" />
<rect x="74" y="71" width="3" height="46" fill="#F4F4F4" />
<rect x="80" y="71" width="3" height="42" fill="#F4F4F4" />
<rect x="8" y="72" width="3" height="7" fill="#1C1C1C" />
<rect x="11" y="72" width="4" height="3" fill="#F4F4F4" />
<rect x="19" y="72" width="4" height="11" fill="#F4F4F4" />
<rect x="105" y="72" width="4" height="11" fill="#F4F4F4" />
<rect x="113" y="72" width="4" height="3" fill="#F4F4F4" />
<rect x="117" y="72" width="3" height="7" fill="#1C1C1C" />
<rect x="11" y="75" width="4" height="8" fill="#1C1C1C" />
<rect x="113" y="75" width="4" height="4" fill="#1C1C1C" />
<rect x="56" y="79" width="4" height="4" fill="#F4F4F4" />
<rect x="60" y="79" width="4" height="4" fill="#1C1C1C" />
<rect x="64" y="79" width="4" height="8" fill="#E0E0E0" />
<rect x="19" y="83" width="4" height="11" fill="#1C1C1C" />
<rect x="23" y="83" width="3" height="7" fill="#F4F4F4" />
<rect x="56" y="83" width="4" height="4" fill="#1C1C1C" />
<rect x="60" y="83" width="4" height="4" fill="#E0E0E0" />
<rect x="68" y="83" width="4" height="4" fill="#1C1C1C" />
<rect x="72" y="83" width="2" height="18" fill="#F4F4F4" />
<rect x="102" y="83" width="3" height="7" fill="#F4F4F4" />
<rect x="105" y="83" width="4" height="11" fill="#1C1C1C" />
<rect x="26" y="87" width="4" height="18" fill="#1C1C1C" />
<rect x="56" y="87" width="4" height="14" fill="#F4F4F4" />
<rect x="60" y="87" width="8" height="3" fill="#1C1C1C" />
<rect x="68" y="87" width="4" height="11" fill="#F4F4F4" />
<rect x="98" y="87" width="4" height="15" fill="#1C1C1C" />
<rect x="23" y="90" width="3" height="4" fill="#1C1C1C" />
<rect x="60" y="90" width="8" height="8" fill="#F4F4F4" />
<rect x="102" y="90" width="3" height="4" fill="#1C1C1C" />
<rect x="30" y="98" width="4" height="11" fill="#1C1C1C" />
<rect x="60" y="98" width="10" height="3" fill="#1C1C1C" />
<rect x="70" y="98" width="2" height="3" fill="#F4F4F4" />
<rect x="94" y="98" width="4" height="11" fill="#1C1C1C" />
<rect x="56" y="101" width="1" height="19" fill="#F4F4F4" />
<rect x="57" y="101" width="3" height="9" fill="#1C1C1C" />
<rect x="60" y="101" width="10" height="3" fill="#F4F4F4" />
<rect x="70" y="101" width="3" height="9" fill="#1C1C1C" />
<rect x="73" y="101" width="1" height="19" fill="#F4F4F4" />
<rect x="60" y="104" width="10" height="9" fill="#1C1C1C" />
<rect x="34" y="105" width="4" height="8" fill="#1C1C1C" />
<rect x="90" y="105" width="4" height="8" fill="#1C1C1C" />
<rect x="38" y="109" width="3" height="8" fill="#1C1C1C" />
<rect x="41" y="109" width="4" height="4" fill="#E0E0E0" />
<rect x="45" y="109" width="1" height="4" fill="#F4F4F4" />
<rect x="83" y="109" width="4" height="4" fill="#E0E0E0" />
<rect x="87" y="109" width="3" height="8" fill="#1C1C1C" />
<rect x="57" y="110" width="3" height="10" fill="#F4F4F4" />
<rect x="70" y="110" width="3" height="10" fill="#F4F4F4" />
<rect x="41" y="113" width="4" height="7" fill="#1C1C1C" />
<rect x="45" y="113" width="4" height="4" fill="#E0E0E0" />
<rect x="60" y="113" width="10" height="7" fill="#F4F4F4" />
<rect x="77" y="113" width="2" height="4" fill="#F4F4F4" />
<rect x="79" y="113" width="4" height="4" fill="#E0E0E0" />
<rect x="83" y="113" width="4" height="7" fill="#1C1C1C" />
<rect x="45" y="117" width="4" height="7" fill="#1C1C1C" />
<rect x="49" y="117" width="4" height="3" fill="#E0E0E0" />
<rect x="53" y="117" width="2" height="3" fill="#F4F4F4" />
<rect x="74" y="117" width="1" height="3" fill="#F4F4F4" />
<rect x="75" y="117" width="4" height="3" fill="#E0E0E0" />
<rect x="79" y="117" width="4" height="7" fill="#1C1C1C" />
<rect x="49" y="120" width="4" height="8" fill="#1C1C1C" />
<rect x="53" y="120" width="22" height="4" fill="#E0E0E0" />
<rect x="75" y="120" width="4" height="8" fill="#1C1C1C" />
<rect x="53" y="124" width="22" height="4" fill="#1C1C1C" />
</svg>