<?xml version="1.0" encoding="UTF-8" ?>
<svg version="1.1" width="34" height="34" xmlns="http://www.w3.org/2000/svg" shape-rendering="crispEdges">
<rect x="12" y="0" width="10" height="1" fill="#1C1C1C" />
<rect x="10" y="1" width="3" height="1" fill="#1C1C1C" />
<rect x="13" y="1" width="8" height="1" fill="#F4F4F4" />
<rect x="21" y="1" width="3" height="1" fill="#1C1C1C" />
<rect x="9" y="2" width="2" height="1" fill="#1C1C1C" />
<rect x="11" y="2" width="2" height="1" fill="#F4F4F4" />
<rect x="13" y="2" width="8" height="1" fill="#1C1C1C" />
<rect x="21" y="2" width="2" height="1" fill="#F4F4F4" />
<rect x="23" y="2" width="2" height="1" fill="#1C1C1C" />
<rect x="7" y="3" width="3" height="1" fill="#1C1C1C" />
<rect x="10" y="3" width="1" height="1" fill="#F4F4F4" />
<rect x="11" y="3" width="4" height="1" fill="#1C1C1C" />
<rect x="15" y="3" width="1" height="1" fill="#F4F4F4" />
<rect x="16" y="3" width="7" height="2" fill="#1C1C1C" />
<rect x="23" y="3" width="1" height="1" fill="#F4F4F4" />
<rect x="24" y="3" width="3" height="1" fill="#1C1C1C" />
<rect x="6" y="4" width="2" height="1" fill="#1C1C1C" />
<rect x="8" y="4" width="2" height="1" fill="#F4F4F4" />
<rect x="10" y="4" width="4" height="1" fill="#1C1C1C" />
<rect x="14" y="4" width="1" height="1" fill="#F4F4F4" />
<rect x="15" y="4" width="1" height="5" fill="#1C1C1C" />
<rect x="23" y="4" width="1" height="2" fill="#1C1C1C" />
<rect x="24" y="4" width="2" height="1" fill="#F4F4F4" />
<rect x="26" y="4" width="2" height="1" fill="#1C1C1C" />
<rect x="5" y="5" width="2" height="1" fill="#1C1C1C" />
<rect x="7" y="5" width="1" height="1" fill="#F4F4F4" />
<rect x="8" y="5" width="4" height="1" fill="#1C1C1C" />
<rect x="12" y="5" width="1" height="1" fill="#F4F4F4" />
<rect x="13" y="5" width="2" height="5" fill="#1C1C1C" />
<rect x="16" y="5" width="1" height="4" fill="#1C1C1C" />
<rect x="17" y="5" width="3" height="1" fill="#F4F4F4" />
<rect x="20" y="5" width="2" height="1" fill="#1C1C1C" />
<rect x="22" y="5" width="1" height="1" fill="#F4F4F4" />
<rect x="24" y="5" width="2" height="6" fill="#1C1C1C" />
<rect x="26" y="5" width="1" height="1" fill="#F4F4F4" />
<rect x="27" y="5" width="2" height="1" fill="#1C1C1C" />
<rect x="4" y="6" width="2" height="1" fill="#1C1C1C" />
<rect x="6" y="6" width="1" height="1" fill="#F4F4F4" />
<rect x="7" y="6" width="4" height="1" fill="#1C1C1C" />
<rect x="11" y="6" width="1" height="1" fill="#F4F4F4" />
<rect x="12" y="6" width="1" height="5" fill="#1C1C1C" />
<rect x="17" y="6" width="3" height="3" fill="#1C1C1C" />
<rect x="20" y="6" width="1" height="1" fill="#F4F4F4" />
<rect x="21" y="6" width="2" height="2" fill="#1C1C1C" />
<rect x="23" y="6" width="1" height="1" fill="#F4F4F4" />
<rect x="26" y="6" width="1" height="3" fill="#1C1C1C" />
<rect x="27" y="6" width="1" height="1" fill="#F4F4F4" />
<rect x="28" y="6" width="2" height="1" fill="#1C1C1C" />
<rect x="3" y="7" width="2" height="1" fill="#1C1C1C" />
<rect x="5" y="7" width="1" height="1" fill="#F4F4F4" />
<rect x="6" y="7" width="4" height="1" fill="#1C1C1C" />
<rect x="10" y="7" width="1" height="1" fill="#F4F4F4" />
<rect x="11" y="7" width="1" height="7" fill="#1C1C1C" />
<rect x="20" y="7" width="1" height="4" fill="#1C1C1C" />
<rect x="23" y="7" width="1" height="3" fill="#1C1C1C" />
<rect x="27" y="7" width="1" height="3" fill="#1C1C1C" />
<rect x="28" y="7" width="1" height="1" fill="#F4F4F4" />
<rect x="29" y="7" width="2" height="1" fill="#1C1C1C" />
<rect x="2" y="8" width="2" height="1" fill="#1C1C1C" />
<rect x="4" y="8" width="1" height="1" fill="#F4F4F4" />
<rect x="5" y="8" width="4" height="2" fill="#1C1C1C" />
<rect x="9" y="8" width="1" height="1" fill="#F4F4F4" />
<rect x="10" y="8" width="1" height="3" fill="#1C1C1C" />
<rect x="21" y="8" width="1" height="1" fill="#F4F4F4" />
<rect x="22" y="8" width="1" height="1" fill="#1C1C1C" />
<rect x="28" y="8" width="1" height="4" fill="#1C1C1C" />
<rect x="29" y="8" width="1" height="1" fill="#F4F4F4" />
<rect x="30" y="8" width="2" height="1" fill="#1C1C1C" />
<rect x="2" y="9" width="1" height="3" fill="#1C1C1C" />
<rect x="3" y="9" width="1" height="3" fill="#FFFFFF" />
<rect x="4" y="9" width="1" height="4" fill="#1C1C1C" />
<rect x="9" y="9" width="1" height="3" fill="#1C1C1C" />
<rect x="15" y="9" width="3" height="9" fill="#F4F4F4" />
<rect x="18" y="9" width="2" height="1" fill="#1C1C1C" />
<rect x="21" y="9" width="1" height="5" fill="#1C1C1C" />
<rect x="22" y="9" width="1" height="1" fill="#F4F4F4" />
<rect x="26" y="9" width="1" height="1" fill="#F4F4F4" />
<rect x="29" y="9" width="1" height="6" fill="#1C1C1C" />
<rect x="30" y="9" width="1" height="3" fill="#F4F4F4" />
<rect x="31" y="9" width="1" height="3" fill="#1C1C1C" />
<rect x="5" y="10" width="1" height="1" fill="#1C1C1C" />
<rect x="6" y="10" width="2" height="1" fill="#F4F4F4" />
<rect x="8" y="10" width="1" height="3" fill="#1C1C1C" />
<rect x="13" y="10" width="2" height="5" fill="#F4F4F4" />
<rect x="18" y="10" width="2" height="5" fill="#F4F4F4" />
<rect x="22" y="10" width="1" height="4" fill="#1C1C1C" />
<rect x="23" y="10" width="1" height="1" fill="#F4F4F4" />
<rect x="26" y="10" width="1" height="8" fill="#1C1C1C" />
<rect x="27" y="10" width="1" height="2" fill="#F4F4F4" />
<rect x="1" y="11" width="1" height="2" fill="#1C1C1C" />
<rect x="5" y="11" width="1" height="2" fill="#F4F4F4" />
<rect x="6" y="11" width="2" height="3" fill="#1C1C1C" />
<rect x="10" y="11" width="1" height="1" fill="#F4F4F4" />
<rect x="12" y="11" width="1" height="4" fill="#F4F4F4" />
<rect x="20" y="11" width="1" height="4" fill="#F4F4F4" />
<rect x="23" y="11" width="1" height="4" fill="#1C1C1C" />
<rect x="24" y="11" width="1" height="1" fill="#F4F4F4" />
<rect x="25" y="11" width="1" height="1" fill="#1C1C1C" />
<rect x="32" y="11" width="1" height="2" fill="#1C1C1C" />
<rect x="0" y="12" width="1" height="6" fill="#1C1C1C" />
<rect x="2" y="12" width="1" height="1" fill="#FFFFFF" />
<rect x="3" y="12" width="1" height="7" fill="#1C1C1C" />
<rect x="9" y="12" width="1" height="1" fill="#F4F4F4" />
<rect x="10" y="12" width="1" height="3" fill="#1C1C1C" />
<rect x="24" y="12" width="1" height="4" fill="#1C1C1C" />
<rect x="25" y="12" width="1" height="1" fill="#F4F4F4" />
<rect x="27" y="12" width="1" height="10" fill="#1C1C1C" />
<rect x="28" y="12" width="1" height="3" fill="#F4F4F4" />
<rect x="30" y="12" width="1" height="7" fill="#1C1C1C" />
<rect x="31" y="12" width="1" height="1" fill="#F4F4F4" />
<rect x="33" y="12" width="1" height="6" fill="#1C1C1C" />
<rect x="1" y="13" width="1" height="2" fill="#FFFFFF" />
<rect x="2" y="13" width="1" height="2" fill="#1C1C1C" />
<rect x="4" y="13" width="1" height="1" fill="#F4F4F4" />
<rect x="5" y="13" width="1" height="6" fill="#1C1C1C" />
<rect x="8" y="13" width="1" height="1" fill="#F4F4F4" />
<rect x="9" y="13" width="1" height="3" fill="#1C1C1C" />
<rect x="25" y="13" width="1" height="4" fill="#1C1C1C" />
<rect x="31" y="13" width="1" height="2" fill="#1C1C1C" />
<rect x="32" y="13" width="1" height="2" fill="#F4F4F4" />
<rect x="4" y="14" width="1" height="9" fill="#1C1C1C" />
<rect x="6" y="14" width="1" height="8" fill="#1C1C1C" />
<rect x="7" y="14" width="1" height="2" fill="#F4F4F4" />
<rect x="8" y="14" width="1" height="3" fill="#1C1C1C" />
<rect x="11" y="14" width="1" height="1" fill="#F4F4F4" />
<rect x="21" y="14" width="2" height="1" fill="#F4F4F4" />
<rect x="1" y="15" width="1" height="1" fill="#1C1C1C" />
<rect x="2" y="15" width="1" height="1" fill="#FFFFFF" />
<rect x="10" y="15" width="1" height="1" fill="#F4F4F4" />
<rect x="11" y="15" width="4" height="1" fill="#1C1C1C" />
<rect x="18" y="15" width="1" height="7" fill="#F4F4F4" />
<rect x="19" y="15" width="4" height="1" fill="#1C1C1C" />
<rect x="23" y="15" width="1" height="1" fill="#F4F4F4" />
<rect x="28" y="15" width="1" height="4" fill="#1C1C1C" />
<rect x="29" y="15" width="1" height="1" fill="#F4F4F4" />
<rect x="31" y="15" width="1" height="1" fill="#F4F4F4" />
<rect x="32" y="15" width="1" height="1" fill="#1C1C1C" />
<rect x="1" y="16" width="1" height="1" fill="#FFFFFF" />
<rect x="2" y="16" width="1" height="1" fill="#1C1C1C" />
<rect x="7" y="16" width="1" height="2" fill="#1C1C1C" />
<rect x="9" y="16" width="1" height="12" fill="#F4F4F4" />
<rect x="10" y="16" width="1" height="1" fill="#1C1C1C" />
<rect x="11" y="16" width="4" height="1" fill="#F4F4F4" />
<rect x="19" y="16" width="4" height="1" fill="#F4F4F4" />
<rect x="23" y="16" width="1" height="1" fill="#1C1C1C" />
<rect x="24" y="16" width="1" height="12" fill="#F4F4F4" />
<rect x="29" y="16" width="1" height="7" fill="#1C1C1C" />
<rect x="31" y="16" width="1" height="1" fill="#1C1C1C" />
<rect x="32" y="16" width="1" height="1" fill="#F4F4F4" />
<rect x="1" y="17" width="1" height="3" fill="#1C1C1C" />
<rect x="2" y="17" width="1" height="2" fill="#F4F4F4" />
<rect x="8" y="17" width="1" height="9" fill="#F4F4F4" />
<rect x="10" y="17" width="2" height="1" fill="#F4F4F4" />
<rect x="12" y="17" width="3" height="1" fill="#1C1C1C" />
<rect x="19" y="17" width="3" height="1" fill="#1C1C1C" />
<rect x="22" y="17" width="2" height="1" fill="#F4F4F4" />
<rect x="25" y="17" width="1" height="9" fill="#F4F4F4" />
<rect x="31" y="17" width="1" height="2" fill="#F4F4F4" />
<rect x="32" y="17" width="1" height="3" fill="#1C1C1C" />
<rect x="7" y="18" width="1" height="5" fill="#F4F4F4" />
<rect x="10" y="18" width="1" height="11" fill="#F4F4F4" />
<rect x="11" y="18" width="1" height="1" fill="#1C1C1C" />
<rect x="12" y="18" width="1" height="1" fill="#E0E0E0" />
<rect x="13" y="18" width="2" height="1" fill="#1C1C1C" />
<rect x="15" y="18" width="2" height="3" fill="#F4F4F4" />
<rect x="17" y="18" width="1" height="3" fill="#1C1C1C" />
<rect x="19" y="18" width="2" height="1" fill="#1C1C1C" />
<rect x="21" y="18" width="1" height="1" fill="#E0E0E0" />
<rect x="22" y="18" width="1" height="1" fill="#1C1C1C" />
<rect x="23" y="18" width="1" height="11" fill="#F4F4F4" />
<rect x="26" y="18" width="1" height="5" fill="#F4F4F4" />
<rect x="2" y="19" width="1" height="2" fill="#1C1C1C" />
<rect x="3" y="19" width="1" height="1" fill="#F4F4F4" />
<rect x="5" y="19" width="1" height="3" fill="#F4F4F4" />
<rect x="11" y="19" width="4" height="9" fill="#F4F4F4" />
<rect x="19" y="19" width="4" height="9" fill="#F4F4F4" />
<rect x="28" y="19" width="1" height="3" fill="#F4F4F4" />
<rect x="30" y="19" width="1" height="1" fill="#F4F4F4" />
<rect x="31" y="19" width="1" height="2" fill="#1C1C1C" />
<rect x="3" y="20" width="1" height="2" fill="#1C1C1C" />
<rect x="30" y="20" width="1" height="1" fill="#1C1C1C" />
<rect x="15" y="21" width="1" height="1" fill="#F4F4F4" />
<rect x="16" y="21" width="1" height="1" fill="#1C1C1C" />
<rect x="17" y="21" width="1" height="2" fill="#E0E0E0" />
<rect x="5" y="22" width="1" height="3" fill="#1C1C1C" />
<rect x="6" y="22" width="1" height="2" fill="#F4F4F4" />
<rect x="15" y="22" width="1" height="1" fill="#1C1C1C" />
<rect x="16" y="22" width="1" height="1" fill="#E0E0E0" />
<rect x="18" y="22" width="1" height="1" fill="#1C1C1C" />
<rect x="27" y="22" width="1" height="2" fill="#F4F4F4" />
<rect x="28" y="22" width="1" height="3" fill="#1C1C1C" />
<rect x="7" y="23" width="1" height="5" fill="#1C1C1C" />
<rect x="15" y="23" width="1" height="4" fill="#F4F4F4" />
<rect x="16" y="23" width="2" height="1" fill="#1C1C1C" />
<rect x="18" y="23" width="1" height="5" fill="#F4F4F4" />
<rect x="26" y="23" width="1" height="4" fill="#1C1C1C" />
<rect x="6" y="24" width="1" height="1" fill="#1C1C1C" />
<rect x="16" y="24" width="2" height="3" fill="#F4F4F4" />
<rect x="27" y="24" width="1" height="1" fill="#1C1C1C" />
<rect x="8" y="26" width="1" height="3" fill="#1C1C1C" />
<rect x="25" y="26" width="1" height="3" fill="#1C1C1C" />
<rect x="15" y="27" width="3" height="1" fill="#1C1C1C" />
<rect x="9" y="28" width="1" height="2" fill="#1C1C1C" />
<rect x="11" y="28" width="3" height="1" fill="#F4F4F4" />
<rect x="14" y="28" width="1" height="1" fill="#1C1C1C" />
<rect x="15" y="28" width="4" height="1" fill="#E0E0E0" />
<rect x="19" y="28" width="1" height="1" fill="#1C1C1C" />
<rect x="20" y="28" width="3" height="1" fill="#F4F4F4" />
<rect x="24" y="28" width="1" height="2" fill="#1C1C1C" />
<rect x="10" y="29" width="1" height="2" fill="#1C1C1C" />
<rect x="11" y="29" width="1" height="1" fill="#E0E0E0" />
<rect x="12" y="29" width="3" height="1" fill="#F4F4F4" />
<rect x="15" y="29" width="4" height="1" fill="#1C1C1C" />
<rect x="19" y="29" width="3" height="1" fill="#F4F4F4" />
<rect x="22" y="29" width="1" height="1" fill="#E0E0E0" />
<rect x="23" y="29" width="1" height="2" fill="#1C1C1C" />
<rect x="11" y="30" width="1" height="2" fill="#1C1C1C" />
<rect x="12" y="30" width="1" height="1" fill="#E0E0E0" />
<rect x="13" y="30" width="8" height="1" fill="#F4F4F4" />
<rect x="21" y="30" width="1" height="1" fill="#E0E0E0" />
<rect x="22" y="30" width="1" height="2" fill="#1C1C1C" />
<rect x="12" y="31" width="1" height="2" fill="#1C1C1C" />
<rect x="13" y="31" width="1" height="1" fill="#E0E0E0" />
<rect x="14" y="31" width="6" height="1" fill="#F4F4F4" />
<rect x="20" y="31" width="1" height="1" fill="#E0E0E0" />
<rect x="21" y="31" width="1" height="2" fill="#1C1C1C" />
<rect x="13" y="32" width="1" height="2" fill="#1C1C1C" />
<rect x="14" y="32" width="6" height="1" fill="#E0E0E0" />
<rect x="20" y="32" width="1" height="2" fill="#1C1C1C" />
<rect x="14" y="33" width="6" height="1" fill="#1C1C1C" />
</svg>